<svg width="19" height="19" viewBox="0 0 19 19" fill="none" xmlns="http://www.w3.org/2000/svg">
<path d="M9.49996 7.125C10.1298 7.125 10.7339 7.37522 11.1793 7.82062C11.6247 8.26602 11.875 8.87011 11.875 9.5C11.875 10.1299 11.6247 10.734 11.1793 11.1794C10.7339 11.6248 10.1298 11.875 9.49996 11.875C8.87007 11.875 8.26598 11.6248 7.82058 11.1794C7.37518 10.734 7.12496 10.1299 7.12496 9.5C7.12496 8.87011 7.37518 8.26602 7.82058 7.82062C8.26598 7.37522 8.87007 7.125 9.49996 7.125ZM9.49996 3.5625C13.4583 3.5625 16.8387 6.02458 18.2083 9.5C16.8387 12.9754 13.4583 15.4375 9.49996 15.4375C5.54163 15.4375 2.16121 12.9754 0.791626 9.5C2.16121 6.02458 5.54163 3.5625 9.49996 3.5625ZM2.51746 9.5C3.15733 10.8065 4.15091 11.9073 5.38526 12.6772C6.6196 13.4471 8.04519 13.8552 9.49996 13.8552C10.9547 13.8552 12.3803 13.4471 13.6147 12.6772C14.849 11.9073 15.8426 10.8065 16.4825 9.5C15.8426 8.19351 14.849 7.09274 13.6147 6.32284C12.3803 5.55294 10.9547 5.14479 9.49996 5.14479C8.04519 5.14479 6.6196 5.55294 5.38526 6.32284C4.15091 7.09274 3.15733 8.19351 2.51746 9.5Z" fill="black"/>
</svg>
